<?xml version="1.0" standalone="no"?>
<!DOCTYPE svg PUBLIC "-//W3C//DTD SVG 20010904//EN"
 "http://www.w3.org/TR/2001/REC-SVG-20010904/DTD/svg10.dtd">
<svg version="1.0" xmlns="http://www.w3.org/2000/svg"
 width="300.000000pt" height="300.000000pt" viewBox="0 0 300.000000 300.000000"
 preserveAspectRatio="xMidYMid meet">
<metadata>
Created by potrace 1.14, written by Peter Selinger 2001-2017
</metadata>
<g transform="translate(0.000000,300.000000) scale(0.100000,-0.100000)"
fill="#000000" stroke="none">
<path d="M1400 2672 c0 -6 5 -14 10 -17 21 -13 9 -25 -25 -25 -20 0 -38 -6
-41 -13 -2 -7 -22 -23 -43 -37 -44 -27 -69 -66 -107 -166 -36 -95 -45 -160
-33 -240 9 -61 8 -69 -11 -86 -38 -35 -12 -160 39 -188 12 -6 33 -34 47 -63
15 -29 40 -67 55 -85 27 -31 29 -38 29 -125 l0 -92 96 -96 97 -97 -37 -37 -38
-37 27 -28 26 -28 -22 -143 c-12 -79 -25 -148 -29 -152 -11 -12 -72 101 -115
212 -44 113 -65 217 -65 317 0 56 -3 74 -14 74 -18 0 -285 -91 -391 -134 -146
-59 -166 -82 -209 -228 -24 -84 -66 -313 -66 -362 l0 -26 969 0 970 0 -5 38
c-44 330 -94 486 -170 529 -50 29 -237 101 -384 149 -63 20 -121 39 -127 42
-10 3 -13 -14 -13 -66 0 -91 -24 -214 -61 -315 -32 -88 -108 -237 -120 -237
-9 0 -15 26 -34 160 -9 58 -18 112 -21 121 -2 9 7 31 22 48 l27 32 -33 34 -33
34 96 103 97 103 0 86 c0 66 4 90 16 100 8 7 33 45 55 85 22 40 50 79 63 87
54 36 77 161 35 191 -21 14 -21 15 -4 58 22 55 23 170 1 219 -8 20 -26 50 -39
65 -13 16 -33 50 -45 76 -37 85 -118 125 -295 148 -49 6 -102 13 -118 17 -17
3 -29 1 -29 -5z"/>
</g>
</svg>
